<svg width="272" height="39" viewBox="0 0 272 39" fill="none" xmlns="http://www.w3.org/2000/svg">
<g clip-path="url(#clip0_2_1285)">
<g clip-path="url(#clip1_2_1285)">
<path fill-rule="evenodd" clip-rule="evenodd" d="M106.62 12.828C108.256 12.828 109.705 13.217 110.969 13.996C112.231 14.776 113.16 15.71 113.758 16.8L111.738 17.974C111.261 17.1086 110.546 16.3977 109.678 15.925C108.79 15.432 107.771 15.185 106.62 15.185C104.968 15.185 103.614 15.698 102.555 16.721C101.498 17.745 100.969 19.058 100.969 20.662C100.969 22.266 101.498 23.578 102.555 24.598C103.614 25.618 104.968 26.128 106.62 26.128C107.77 26.128 108.79 25.881 109.678 25.388C110.546 24.9153 111.26 24.2048 111.738 23.34L113.758 24.524C113.16 25.614 112.231 26.549 110.968 27.328C109.705 28.107 108.256 28.496 106.62 28.496C104.302 28.496 102.374 27.733 100.834 26.206C99.294 24.68 98.524 22.83 98.524 20.656C98.524 18.484 99.294 16.636 100.834 15.113C102.374 13.59 104.302 12.828 106.62 12.828ZM118.588 13.142L123.916 25.142L129.243 13.142H132.698V28.172H130.523V15.416L124.863 28.17H122.979L117.319 15.416V28.17H115.144V13.14H118.588V13.142ZM140.267 13.142C142.64 13.142 144.582 13.855 146.095 15.28C147.605 16.705 148.363 18.498 148.363 20.657C148.363 22.815 147.606 24.607 146.095 26.033C144.582 27.459 142.64 28.171 140.267 28.171H133.982V13.141H140.267V13.142ZM161.58 13.142V15.417H156.076V28.17H153.651V15.417H148.147V13.142H161.58ZM140.267 15.469H136.324V25.855H140.267C141.987 25.855 143.359 25.391 144.382 24.461C145.405 23.532 145.918 22.265 145.918 20.661C145.918 19.058 145.405 17.792 144.382 16.863C143.359 15.933 141.987 15.469 140.267 15.469ZM231.723 13.04L233.197 13.62L232.669 14.46H236.929V15.944C236.394 16.62 235.805 17.2511 235.167 17.831C234.503 18.4221 233.778 18.9414 233.005 19.38L233.757 19.767C233.587 20.035 233.421 20.283 233.261 20.508H237.281V22.089C236.86 22.73 236.385 23.3344 235.863 23.896C235.294 24.5021 234.666 25.0505 233.989 25.533C233.189 26.1023 232.342 26.604 231.459 27.033C230.493 27.512 229.369 27.978 228.089 28.429L227.336 26.993C229.652 26.283 231.366 25.553 232.476 24.799C233.586 24.047 234.547 23.149 235.359 22.106H231.996L231.451 22.686L231.932 23.074C232.145 23.257 232.335 23.418 232.501 23.558C232.666 23.698 232.807 23.826 232.925 23.945L231.787 25.107C231.67 24.977 231.526 24.829 231.355 24.662C231.185 24.496 230.992 24.311 230.779 24.106L230.346 23.719C230.09 23.934 229.826 24.149 229.553 24.364C229.281 24.579 228.99 24.794 228.681 25.009L227.575 23.816C228.381 23.2814 229.147 22.6881 229.866 22.041C230.529 21.4379 231.14 20.7795 231.691 20.073C231.285 20.267 230.859 20.455 230.41 20.638C229.962 20.821 229.481 21.003 228.97 21.186L228.136 19.783C229.684 19.321 231.016 18.777 232.132 18.154C233.247 17.53 234.19 16.799 234.959 15.96H231.499L231.099 16.396L231.515 16.702C231.718 16.852 231.895 16.992 232.043 17.122C232.193 17.25 232.321 17.358 232.429 17.444L231.243 18.54C230.939 18.2539 230.63 17.9745 230.314 17.702L229.994 17.428C229.854 17.546 229.714 17.661 229.57 17.774L229.129 18.121L228.024 16.928C228.829 16.3929 229.561 15.7556 230.202 15.032C230.76 14.4085 231.269 13.7425 231.723 13.04ZM262.633 12.96L264.315 13.54C264.229 13.734 264.152 13.92 264.083 14.097C264.013 14.274 263.935 14.449 263.851 14.621H270C270 15.611 269.995 16.605 269.985 17.605C269.974 18.605 269.961 19.571 269.944 20.501C269.929 21.431 269.906 22.305 269.88 23.122C269.854 23.939 269.825 24.654 269.793 25.267C269.761 25.837 269.698 26.294 269.608 26.638C269.518 26.983 269.386 27.251 269.216 27.445C269.044 27.638 268.836 27.773 268.591 27.848C268.345 27.924 268.047 27.978 267.695 28.01C267.213 28.053 266.779 28.085 266.389 28.107C265.999 28.127 265.633 28.139 265.292 28.139L264.875 26.235C265.163 26.245 265.508 26.259 265.909 26.275C266.309 26.292 266.679 26.289 267.021 26.268C267.225 26.268 267.387 26.254 267.51 26.228C267.626 26.2048 267.731 26.1419 267.806 26.05C267.881 25.959 267.936 25.818 267.974 25.63C268.012 25.443 268.04 25.176 268.062 24.832C268.084 24.455 268.104 23.979 268.127 23.404C268.177 21.9611 268.206 20.5177 268.215 19.074C268.22 18.1706 268.217 17.2673 268.207 16.364H262.969C262.844 16.5947 262.711 16.8205 262.569 17.041C262.429 17.256 262.286 17.471 262.137 17.686H266.781V25.655H260.952V19.235L260.727 19.492L259.367 18.492V25.025L259.63 24.759C259.71 24.679 259.788 24.595 259.862 24.509C260.028 24.3186 260.183 24.1193 260.327 23.912L260.887 25.542C260.273 26.2321 259.612 26.8786 258.909 27.477C258.669 27.681 258.448 27.859 258.245 28.01L257.252 26.832C257.444 26.659 257.57 26.496 257.628 26.34C257.688 26.185 257.727 25.961 257.748 25.67V19.944H256.179V18.234H259.366V18.427C259.676 18.073 259.991 17.673 260.311 17.226C260.631 16.78 260.935 16.315 261.224 15.831C261.512 15.347 261.779 14.858 262.024 14.363C262.27 13.869 262.473 13.402 262.633 12.96ZM214.363 13.12V15.992H219.857V23.542H214.363V28.107H212.458V23.542H207.012V15.992H212.458V13.12H214.363ZM227.847 13.444L228.537 15.04C227.96 15.223 227.319 15.396 226.614 15.556V17.556H228.376V19.138H226.614V19.605C227.106 20.079 227.56 20.552 227.975 21.025C228.392 21.498 228.702 21.875 228.905 22.154L227.752 23.316C227.612 23.111 227.44 22.875 227.232 22.606C227.029 22.3449 226.823 22.0866 226.614 21.831V28.091H225.044V22.364C224.639 23.439 224.223 24.354 223.796 25.107L222.531 24.251C223.011 23.477 223.444 22.641 223.828 21.743C224.212 20.845 224.543 19.976 224.821 19.138H222.995V17.557H225.045V15.88C224.768 15.934 224.501 15.979 224.245 16.017C223.988 16.054 223.748 16.083 223.524 16.104L223.027 14.476C223.857 14.3728 224.683 14.2356 225.502 14.065C226.294 13.8988 227.077 13.6915 227.847 13.444ZM245.625 12.895L247.275 13.476L246.81 14.427H253.377V15.96C253.227 16.207 253.09 16.425 252.967 16.613C252.75 16.9476 252.512 17.2682 252.255 17.573C252.138 17.713 252.015 17.858 251.886 18.008L250.333 17.363C250.557 17.137 250.763 16.917 250.951 16.702C251.137 16.487 251.311 16.267 251.471 16.04H249.069L248.973 16.96L248.94 17.178C248.929 17.2513 248.913 17.3238 248.892 17.395C249.263 18.0279 249.779 18.5642 250.397 18.96C250.803 19.23 251.305 19.487 251.903 19.734C252.501 19.982 253.179 20.197 253.937 20.379L253.217 22.073C252.472 21.8287 251.742 21.5409 251.03 21.211C250.483 20.9604 249.961 20.6605 249.469 20.315C248.978 19.9601 248.545 19.5302 248.187 19.041C247.974 19.374 247.691 19.681 247.339 19.961C246.885 20.3386 246.397 20.673 245.881 20.96C245.315 21.283 244.647 21.606 243.88 21.928H252.287V27.799H241.205V21.929H243.111L242.422 20.492C243.255 20.267 243.965 20.012 244.552 19.726C245.14 19.442 245.604 19.164 245.946 18.896C246.639 18.348 247.034 17.691 247.131 16.928L247.227 16.04H245.946C245.731 16.396 245.505 16.737 245.265 17.065C245.025 17.393 244.755 17.718 244.456 18.04L243.111 17.008C243.659 16.4112 244.145 15.7598 244.561 15.064C244.981 14.36 245.337 13.636 245.625 12.895ZM250.415 23.671H243.062V26.122H250.414L250.415 23.671ZM265.147 22.428H262.586V24.008H265.147V22.428ZM242.47 16.944L243.864 18.024C243.692 18.294 243.484 18.594 243.239 18.928C242.993 19.262 242.705 19.633 242.374 20.041C242.044 20.449 241.742 20.805 241.469 21.106C241.197 21.406 240.949 21.666 240.724 21.88L239.427 20.574C239.876 20.175 240.404 19.605 241.012 18.864C241.535 18.2531 242.022 17.612 242.47 16.944ZM217.966 17.815H214.363V21.686H217.966V17.816V17.815ZM212.458 17.815H208.886V21.686H212.458V17.816V17.815ZM265.148 19.315H262.586V20.815H265.147V19.315H265.148ZM257.828 13.299C258.149 13.611 258.544 14.057 259.014 14.637C259.504 15.207 259.867 15.669 260.103 16.025L258.822 17.218C258.576 16.831 258.223 16.348 257.764 15.767C257.395 15.3029 257.01 14.8506 256.612 14.411L257.828 13.299ZM240.964 13.089C241.179 13.2324 241.385 13.3884 241.581 13.556C242.092 13.9896 242.591 14.436 243.079 14.895C243.292 15.1 243.474 15.282 243.623 15.445L242.406 16.815C242.256 16.632 242.079 16.433 241.878 16.218C241.643 15.9704 241.402 15.7283 241.156 15.492C240.89 15.223 240.646 14.992 240.428 14.798C240.209 14.605 240.009 14.438 239.828 14.298L240.964 13.089ZM0 20.832C1.112 22.439 2.127 23.866 3.683 25.573C4.898 26.835 5.73 27.582 6.667 28.338C9.186 30.364 11.771 30.198 13.975 28.482C15.281 27.468 17.533 25.404 19.61 23.384C19.746 23.237 19.91 23.203 20.065 23.337C20.867 24.128 21.381 24.772 21.381 24.772C20.693 25.53 17.991 28.045 15.891 29.752C13.107 32.019 10.153 31.785 8.637 30.985C7.496 30.382 5.712 29.37 2.891 26.049C1.467 24.373 0.485 22.678 0.264 22.227C0.2046 22.1015 0.159646 21.9696 0.13 21.834C0.0561029 21.53 0.0125562 21.2195 0 20.907L0 20.832ZM0.17 18.504C0.663 19.226 3.55 23.102 6.813 25.562C8.158 26.575 9.623 26.48 10.886 25.402C11.157 25.182 12.49 24.006 13.864 22.745L14.276 22.365C14.9679 21.7289 15.647 21.0791 16.313 20.416C16.555 20.167 16.836 20.126 17.068 20.326C17.5972 20.7639 18.0973 21.2359 18.565 21.739C17.729 22.694 13.48 26.669 12.445 27.429C10.799 28.642 9.149 28.398 7.717 27.609C6.466 26.925 3.21 24.179 0.145 19.729C-0.015 19.484 0.046 19.199 0.046 19.177L0.082 18.964C0.125 18.718 0.17 18.504 0.17 18.504ZM10.226 13.066C11.874 11.852 13.528 12.096 14.956 12.884C16.206 13.57 19.465 16.314 22.526 20.767C22.69 21.01 22.626 21.299 22.626 21.313C22.578 21.636 22.506 21.993 22.506 21.993C22.011 21.268 19.122 17.395 15.861 14.933C14.515 13.919 13.05 14.013 11.791 15.089C11.339 15.454 7.999 18.422 6.364 20.08C6.12 20.327 5.836 20.369 5.604 20.167C4.703 19.42 4.108 18.752 4.108 18.752C4.939 17.803 9.193 13.824 10.226 13.066ZM6.786 10.743C9.568 8.47298 12.525 8.70998 14.036 9.51198C15.176 10.113 16.962 11.126 19.783 14.445C21.21 16.121 22.188 17.816 22.413 18.27C22.481 18.405 22.525 18.564 22.543 18.66C22.666 19.232 22.674 19.663 22.674 19.663C21.558 18.053 20.547 16.629 18.991 14.92C17.774 13.66 16.943 12.91 16.006 12.155C13.482 10.13 10.9 10.295 8.696 12.013C7.393 13.027 5.138 15.09 3.064 17.11C2.928 17.258 2.763 17.29 2.604 17.158C1.804 16.365 1.294 15.725 1.294 15.725C1.977 14.965 4.684 12.449 6.786 10.743ZM70.262 24.831C70.7019 24.6507 71.1936 24.6429 71.639 24.809C71.847 24.889 72.027 25.013 72.177 25.183C72.331 25.356 72.447 25.573 72.53 25.84C72.618 26.1 72.66 26.42 72.66 26.786V26.896C72.659 26.926 72.657 26.974 72.652 27.039V27.117H69.885C69.894 27.327 69.927 27.51 69.993 27.663C70.064 27.828 70.165 27.967 70.286 28.073C70.411 28.175 70.562 28.253 70.732 28.303C70.903 28.349 71.092 28.377 71.29 28.377C71.6673 28.3745 72.0412 28.3061 72.395 28.175L72.497 28.138V28.848L72.456 28.874C72.306 28.944 72.121 29.006 71.903 29.046C71.687 29.091 71.453 29.108 71.213 29.108C70.913 29.108 70.636 29.071 70.376 28.995C70.121 28.9244 69.8859 28.7957 69.689 28.619C69.4842 28.4352 69.3296 28.2022 69.24 27.942C69.128 27.67 69.071 27.339 69.071 26.957C69.071 26.579 69.127 26.243 69.228 25.966C69.334 25.688 69.478 25.447 69.653 25.262C69.827 25.069 70.031 24.925 70.262 24.831ZM45.928 24.687C46.345 24.687 46.692 24.767 46.961 24.916C47.233 25.069 47.431 25.274 47.547 25.527C47.597 25.627 47.628 25.734 47.647 25.849C47.667 25.962 47.675 26.086 47.675 26.218V29.004H46.981L46.923 28.636C46.885 28.673 46.844 28.706 46.803 28.742C46.7105 28.8156 46.6098 28.8784 46.503 28.929C46.2584 29.0497 45.9888 29.111 45.716 29.108C45.512 29.108 45.323 29.078 45.154 29.018C44.9863 28.96 44.8332 28.8662 44.7054 28.743C44.5776 28.6199 44.4782 28.4704 44.414 28.305C44.2713 27.9321 44.2756 27.5189 44.426 27.149C44.506 26.985 44.611 26.836 44.75 26.719C44.8959 26.5986 45.0631 26.5066 45.243 26.448C45.433 26.386 45.643 26.355 45.868 26.355C46.084 26.357 46.281 26.379 46.468 26.415C46.613 26.44 46.744 26.47 46.861 26.512V26.334C46.861 26.232 46.855 26.138 46.843 26.058C46.8321 25.987 46.8108 25.9179 46.78 25.853C46.7038 25.7226 46.5935 25.6154 46.461 25.543C46.314 25.467 46.105 25.423 45.845 25.423C45.651 25.423 45.465 25.443 45.289 25.479C45.115 25.517 44.942 25.569 44.765 25.635L44.66 25.677V24.957L44.7 24.934C44.773 24.9 44.854 24.867 44.951 24.835C45.0499 24.8048 45.15 24.7784 45.251 24.756C45.474 24.7114 45.7006 24.689 45.928 24.687ZM62.328 22.672V25.082C62.453 24.975 62.584 24.889 62.734 24.826C62.935 24.735 63.169 24.687 63.421 24.687C63.536 24.687 63.668 24.702 63.802 24.728C64.0973 24.7879 64.3713 24.9253 64.596 25.126C64.726 25.232 64.833 25.37 64.928 25.526C65.02 25.686 65.093 25.871 65.148 26.086C65.206 26.304 65.234 26.552 65.234 26.831C65.234 27.211 65.181 27.557 65.077 27.836C64.973 28.123 64.827 28.361 64.66 28.55C64.4916 28.7309 64.2872 28.8747 64.06 28.972C63.837 29.062 63.6 29.108 63.365 29.108C63.187 29.108 63.025 29.087 62.887 29.041C62.7627 28.9998 62.6439 28.9437 62.533 28.874C62.4478 28.8162 62.3693 28.7491 62.299 28.674C62.288 28.655 62.273 28.646 62.262 28.63L62.15 29.004H61.515V22.672H62.328ZM58.761 24.678C59.968 24.678 60.949 25.663 60.949 26.876C60.9517 27.4591 60.7227 28.0194 60.3124 28.4338C59.9021 28.8482 59.3441 29.0828 58.761 29.086C58.4723 29.0845 58.1867 29.0262 57.9206 28.9144C57.6545 28.8025 57.413 28.6393 57.21 28.434C57.007 28.2288 56.8464 27.9855 56.7374 27.7182C56.6285 27.4509 56.5733 27.1647 56.575 26.876C56.575 25.663 57.553 24.678 58.761 24.678ZM30.737 22.988C31.324 22.9892 31.8978 23.1621 32.3879 23.4853C32.8779 23.8085 33.2627 24.2679 33.495 24.807L33.541 24.916H32.677L32.657 24.876C32.4593 24.5425 32.1784 24.2661 31.8419 24.0736C31.5054 23.8812 31.1247 23.7793 30.737 23.778C30.1441 23.7812 29.5767 24.0192 29.1591 24.4401C28.7414 24.8609 28.5077 25.4301 28.509 26.023C28.5079 26.6159 28.7418 27.185 29.1593 27.606C29.5768 28.0269 30.1441 28.2653 30.737 28.269C31.521 28.269 32.257 27.844 32.662 27.154L32.681 27.12H33.548L33.499 27.227C33.2685 27.7689 32.8838 28.231 32.3927 28.556C31.9016 28.881 31.3259 29.0545 30.737 29.055C29.078 29.055 27.724 27.692 27.724 26.023C27.724 24.35 29.078 22.988 30.737 22.988ZM68.427 22.672V29.004H67.61V22.672H68.427ZM66.692 24.794V29.004H65.878V24.794H66.692ZM41.862 24.744C42.187 24.6638 42.5277 24.6727 42.848 24.77C43.018 24.826 43.176 24.916 43.303 25.036C43.423 25.156 43.525 25.316 43.603 25.509C43.67 25.701 43.71 25.938 43.71 26.214V29.004H42.891V26.32C42.891 25.992 42.835 25.755 42.711 25.618C42.591 25.484 42.424 25.413 42.189 25.413C41.977 25.413 41.767 25.475 41.574 25.591C41.3729 25.7143 41.1993 25.8777 41.064 26.071V29.003H40.251V24.795H40.901L41.011 25.277C41.061 25.22 41.107 25.164 41.169 25.115C41.3658 24.9367 41.6035 24.8096 41.861 24.745L41.862 24.744ZM39.376 24.794V29.004H38.56V24.794H39.376ZM35.039 22.672V25.232C35.074 25.192 35.121 25.148 35.163 25.106C35.3592 24.9325 35.5941 24.8084 35.848 24.744C36.122 24.666 36.448 24.666 36.759 24.753C36.9356 24.8029 37.0986 24.8923 37.2356 25.0145C37.3726 25.1366 37.4801 25.2882 37.55 25.458C37.64 25.653 37.68 25.908 37.68 26.214V29.004H36.866V26.32C36.866 26.012 36.81 25.779 36.701 25.631C36.591 25.486 36.417 25.413 36.158 25.413C35.946 25.413 35.736 25.475 35.538 25.591C35.348 25.71 35.178 25.871 35.039 26.071V29.004H34.226V22.672H35.039ZM51.284 23.142L52.639 26.418C52.775 26.744 52.921 27.128 53.079 27.572C53.249 27.084 53.403 26.697 53.519 26.415L54.871 23.143H55.997V29.003H55.15V26.167C55.15 25.636 55.164 25.036 55.188 24.392C55.0469 24.7821 54.8952 25.1682 54.733 25.55L53.29 29.004H52.867L51.418 25.55C51.271 25.191 51.118 24.808 50.967 24.393C50.993 25.031 51.008 25.627 51.008 26.168V29.004H50.158V23.144H51.284V23.142ZM63.67 25.475C63.3688 25.3761 63.041 25.3984 62.756 25.537C62.5982 25.6105 62.4536 25.7094 62.328 25.83V27.886C62.363 27.931 62.406 27.982 62.46 28.032C62.518 28.092 62.591 28.151 62.672 28.202C62.754 28.252 62.85 28.298 62.95 28.335C63.0562 28.3715 63.1677 28.3897 63.28 28.389C63.459 28.389 63.625 28.352 63.758 28.283C63.8952 28.2117 64.0127 28.1076 64.1 27.98C64.196 27.848 64.27 27.689 64.314 27.502C64.368 27.3002 64.3939 27.0919 64.391 26.883C64.391 26.571 64.353 26.318 64.282 26.126C64.2288 25.9616 64.1372 25.8121 64.015 25.69C63.9179 25.5929 63.7999 25.5193 63.67 25.475ZM45.962 27.08C45.707 27.08 45.505 27.132 45.359 27.24C45.223 27.346 45.154 27.502 45.154 27.727C45.154 27.839 45.174 27.941 45.205 28.022C45.2373 28.0992 45.286 28.1683 45.3479 28.2247C45.4097 28.281 45.4832 28.3231 45.563 28.348C45.769 28.408 46.014 28.398 46.209 28.331C46.323 28.293 46.427 28.243 46.515 28.188C46.5969 28.1425 46.6739 28.0889 46.745 28.028C46.792 27.986 46.833 27.951 46.861 27.921V27.208C46.7412 27.1769 46.6205 27.1496 46.499 27.126C46.3218 27.0941 46.142 27.0787 45.962 27.08ZM58.761 25.394C57.946 25.394 57.291 26.058 57.291 26.876C57.291 27.703 57.946 28.367 58.761 28.367C58.9559 28.3666 59.1489 28.3277 59.3288 28.2525C59.5086 28.1773 59.6719 28.0674 59.8091 27.9289C59.9464 27.7905 60.0549 27.6263 60.1285 27.4457C60.2021 27.2652 60.2393 27.0719 60.238 26.877C60.238 26.057 59.578 25.394 58.761 25.394ZM71.318 25.495C71.1982 25.442 71.0686 25.4149 70.9376 25.4156C70.8066 25.4163 70.6772 25.4447 70.558 25.499C70.4382 25.5504 70.3306 25.6263 70.242 25.722C70.1506 25.8219 70.0751 25.9352 70.018 26.058C69.975 26.1647 69.9448 26.2762 69.928 26.39H71.814C71.8062 26.2748 71.786 26.1609 71.754 26.05C71.7213 25.9275 71.666 25.8122 71.591 25.71C71.5173 25.6187 71.424 25.5452 71.318 25.495ZM39.376 23.115V24.014H38.56V23.114H39.376V23.115ZM66.692 23.115V24.014H65.878V23.114H66.692V23.115ZM69.947 10.22V10.322C69.947 11.009 69.937 11.698 69.923 12.378H72.74L72.739 12.482C72.686 15.122 72.618 17.284 72.529 18.896C72.447 19.946 71.951 20.481 71.066 20.493H69.8C69.8 20.493 69.684 19.753 69.626 19.438H69.815L70.012 19.439C70.267 19.44 70.592 19.443 70.802 19.447C71.264 19.447 71.488 19.197 71.508 18.665C71.608 16.964 71.673 15.185 71.695 13.377H69.907L69.884 15.113C69.884 19.534 67.212 20.943 67.212 20.943L66.428 20.176C66.428 20.176 67.283 19.681 67.748 18.95C68.528 17.752 68.874 16.723 68.874 14.706V13.376H67.524V12.378H68.887C68.894 11.709 68.897 11.024 68.894 10.315V10.22H69.947ZM32.846 10.195V12.19H36.912V17.764H32.846V20.79H31.755V17.764H27.723V12.19H31.755V10.196H32.845L32.846 10.195ZM54.693 10.628L54.895 11.592L54.871 11.6C54.764 11.63 54.304 11.757 53.416 11.902V13.427H54.868V14.373H53.416V14.899C53.416 14.899 54.648 15.905 55.102 16.307L55.17 16.37L54.484 17.142L54.416 17.071C54.104 16.777 53.773 16.469 53.416 16.139V20.786H52.45V16.553C52.1468 17.2718 51.768 17.9563 51.32 18.595C51.2243 18.5057 51.1328 18.4119 51.046 18.314L50.87 18.124C50.7811 18.0278 50.6925 17.9315 50.604 17.835C51.3352 16.7693 51.9078 15.6031 52.304 14.373H50.797V13.427H52.45V11.977L52.196 12.021L51.936 12.061C51.549 12.117 51.191 12.158 51.073 12.171L51.033 12.176L50.928 11.22C50.928 11.22 51.645 11.151 52.847 10.99C53.4679 10.8996 54.084 10.7788 54.693 10.628ZM56.835 10.099L57.76 10.453L57.714 10.551C57.624 10.729 57.521 10.908 57.414 11.081H60.797V11.957L60.788 11.985C60.279 12.969 59.474 13.844 58.325 14.587C58.152 14.694 57.978 14.802 57.794 14.903L58.754 15.064C58.754 15.064 58.684 15.324 58.514 15.556H61.173L61.165 16.463C60.071 20.634 54.685 20.771 54.685 20.771L54.302 19.928C54.302 19.928 56.14 19.842 57.512 19.247C57.233 18.947 56.902 18.587 56.524 18.234L57.208 17.634C57.638 18.021 57.99 18.374 58.351 18.734C59.261 18.175 59.908 17.246 60.048 16.497H57.893C57.893 16.497 56.82 17.897 55.257 18.617C54.927 18.355 54.504 17.897 54.504 17.897C55.483 17.357 56.894 16.333 57.538 15.055C57.049 15.273 55.924 15.781 55.372 15.974C55.356 15.98 54.748 15.145 54.748 15.145C55.678 14.867 56.495 14.544 57.239 14.139C56.929 13.8428 56.6077 13.5586 56.276 13.287L56.196 13.224L56.809 12.556L56.879 12.608C57.361 12.991 57.685 13.26 58.059 13.594C58.63 13.221 59.122 12.683 59.623 12.027H56.778C56.413 12.527 55.931 13.052 55.346 13.574C55.048 13.384 54.535 12.987 54.547 12.979C55.514 12.178 56.277 11.237 56.801 10.179L56.835 10.099ZM48.744 10.579V20.511L39.404 20.519V10.579H48.744ZM67.838 13.96V14.937H65.402C65.054 15.951 64.418 17.842 63.906 18.683L66.219 18.132C66 17.582 65.789 17.102 65.549 16.569L65.51 16.477L66.405 16.074L66.447 16.161C66.8481 17.0387 67.2329 17.9239 67.601 18.816L66.608 19.193L66.503 18.939C66.18 18.989 65.563 19.132 64.928 19.289L64.546 19.386C63.66 19.61 62.843 19.832 62.843 19.832L62.552 19.132C62.552 19.132 62.696 19.022 62.796 18.837C63.61 17.334 64.213 15.494 64.318 14.937H62.591V13.96H67.838ZM47.746 11.52H40.404V19.566H47.746V11.52ZM47.001 12.356V13.269H44.544V14.655H46.792V15.566H44.544V17.752H47.17V18.666H40.966V17.752H43.579V15.566H41.331V14.656H43.579V13.27H41.131V12.357H47.001V12.356ZM45.581 15.649L45.637 15.712C46.017 16.107 46.425 16.575 46.701 16.927L46.761 17.007L45.989 17.6L45.924 17.521C45.6118 17.0921 45.2752 16.6814 44.916 16.291L44.836 16.211L45.581 15.649ZM35.857 13.165H32.846V16.785H35.856L35.857 13.165ZM31.755 13.165H28.777V16.785H31.755V13.165ZM67.418 11.197V12.174H63.028V11.197H67.418Z" fill="#0484D4"/>
<path fill-rule="evenodd" clip-rule="evenodd" d="M180.986 22.135C181.932 22.978 182.83 23.868 183.376 25.003C183.518 25.357 183.619 25.727 183.344 26.03C182.925 26.481 182.469 26.9 182.007 27.308C182.267 26.991 182.119 26.61 181.964 26.243C181.535 25.383 180.881 24.68 180.204 24C178.343 22.261 176.024 20.646 173.133 19.863C171.837 19.543 170.427 19.406 169.212 19.967C168.837 20.671 168.92 21.437 169.122 22.193C169.549 23.546 170.493 24.69 171.535 25.691C172.647 26.6847 173.872 27.544 175.185 28.251C174.686 28.671 173.471 29.834 172.981 30.259C167.166 26.43 166.831 23.238 167.867 21.244C168.26 20.547 168.894 20.06 169.445 19.505C170.023 18.945 170.725 18.452 171.748 18.339C173.446 18.143 175.138 18.629 176.816 19.379C178.434 20.137 179.774 21.088 180.986 22.135Z" fill="#8CC41D"/>
<path fill-rule="evenodd" clip-rule="evenodd" d="M188.89 19.452C189.41 20.082 189.929 20.796 190.12 21.572C190.251 21.945 190.04 22.292 189.737 22.592C189.337 22.984 188.934 23.367 188.512 23.742C188.542 23.688 188.592 23.635 188.626 23.572C188.799 23.059 188.508 22.484 188.216 21.95C187.396 20.682 186.316 19.607 185.126 18.602C182.658 16.489 178.906 14.312 175.298 14.105C174.306 14.039 173.132 14.173 172.296 14.633C170.946 17.121 173.26 20.343 175.456 22.241C176.796 23.41 178.346 24.432 180.049 25.351C180.784 25.728 181.604 26.071 182.387 26.178C182.912 26.251 183.369 25.997 183.362 26.011C182.92 26.461 182.476 26.886 182.007 27.309C181.797 27.497 181.45 27.635 181.102 27.597C180.151 27.539 179.117 27.037 178.249 26.587C176.618 25.672 175.129 24.659 173.831 23.509C172.031 21.878 170.164 19.456 170.453 17.249C170.518 16.497 170.962 15.704 171.544 15.153C172.01 14.638 172.544 14.176 173.069 13.71C173.78 13.064 175.027 12.684 176.174 12.682C179.469 12.631 183.169 14.526 185.636 16.404C186.827 17.3005 187.918 18.3224 188.89 19.452Z" fill="#54C2F0"/>
<path fill-rule="evenodd" clip-rule="evenodd" d="M22.11 22.864C20.11 20.196 17.117 17.47 16.292 16.794C15.714 16.324 15.136 16.083 14.566 16.094C13.999 16.099 13.451 16.334 12.961 16.764C12.862 16.85 12.724 16.974 12.55 17.13C11.366 18.14 7.693 21.54 7.61 21.62C7.332 21.88 6.975 22.055 6.573 22.04C6.219 22.024 5.828 21.866 5.433 21.494C5.161 21.241 3.908 20.249 2.441 18.588C1.538 17.566 0.792002 16.658 0.792002 16.658C0.792002 16.658 0.631002 17 0.538002 17.238C0.457002 17.438 0.523002 17.564 0.562002 17.618C1.048 18.328 3.287 21.023 6.374 23.7C6.941 24.19 7.528 24.409 8.098 24.4C8.664 24.392 9.216 24.157 9.704 23.73L10.114 23.365C11.301 22.356 13.527 20.299 14.582 19.317L15.062 18.875C15.337 18.613 15.696 18.44 16.091 18.457C16.446 18.468 16.821 18.647 17.229 18.999C17.891 19.569 18.957 20.565 20.221 21.907C21.157 22.894 21.865 23.817 21.876 23.829C21.876 23.829 22.047 23.474 22.139 23.23C22.214 23.033 22.147 22.916 22.109 22.864" fill="#8CC41D"/>
<path fill-rule="evenodd" clip-rule="evenodd" d="M84.853 31.351H86.053V7.96997H84.853V31.351Z" fill="#E7E7E7"/>
<path fill-rule="evenodd" clip-rule="evenodd" d="M180.266 5.57597C182.761 5.40497 185.28 6.10097 187.747 7.22297C194.629 10.353 197.757 16.131 197.787 16.178L195.496 17.644L194.601 16.401L193.052 17.417C189.007 10.954 179.772 7.23397 175.881 8.13297C175.021 9.54697 175.277 10.762 175.869 12.311C176.749 14.517 178.352 16.273 180.158 17.856C181.662 19.12 183.34 20.246 185.17 21.269C186.367 21.908 187.806 22.641 189.14 22.633C189.445 22.628 189.774 22.523 189.95 22.338L189.948 22.34L189.598 22.71C189.358 22.954 189.108 23.192 188.855 23.427L188.472 23.776C188.208 24.041 187.691 24.176 187.254 24.125C186.149 24.028 184.958 23.458 183.94 22.945C182.221 22.0178 180.588 20.9395 179.06 19.723C177.097 18.133 175.439 16.319 174.42 14.071C173.602 12.184 173.555 10.253 174.976 8.68197C175.596 8.02197 176.262 7.39897 176.947 6.79997C177.744 6.11297 178.981 5.66997 180.266 5.57597ZM197.151 19.501L197.684 20.285L197.038 20.798L196.49 20.028L197.151 19.501ZM194.291 17.529L195.174 18.743L194.038 19.538L193.132 18.3L194.291 17.529ZM198.656 16.173C199.096 16.74 199.484 17.276 199.774 17.793L198.398 18.813L197.164 17.183L198.656 16.173Z" fill="#0484D4"/>
</g>
</g>
<defs>
<clipPath id="clip0_2_1285">
<rect width="272" height="38" fill="white" transform="translate(0 0.549988)"/>
</clipPath>
<clipPath id="clip1_2_1285">
<rect width="272" height="38" fill="white" transform="translate(0 0.549988)"/>
</clipPath>
</defs>
</svg>
