<svg width="272" height="38" viewBox="0 0 272 38" fill="none" xmlns="http://www.w3.org/2000/svg">
<path fill-rule="evenodd" clip-rule="evenodd" d="M100.834 25.844C99.2939 24.341 98.5239 22.519 98.5239 20.378C98.5239 18.238 99.2939 16.418 100.834 14.918C102.374 13.418 104.302 12.668 106.62 12.668C108.256 12.668 109.706 13.051 110.969 13.818C112.231 14.586 113.161 15.507 113.758 16.58L111.738 17.736C111.257 16.8812 110.543 16.1814 109.678 15.719C108.79 15.233 107.771 14.99 106.62 14.99C104.968 14.99 103.614 15.495 102.556 16.502C101.498 17.511 100.969 18.804 100.969 20.384C100.969 21.964 101.499 23.256 102.556 24.26C103.614 25.265 104.968 25.767 106.62 25.767C107.77 25.767 108.79 25.524 109.678 25.039C110.543 24.5761 111.257 23.876 111.738 23.021L113.758 24.188C113.161 25.261 112.231 26.182 110.968 26.949C109.706 27.716 108.256 28.099 106.62 28.099C104.302 28.099 102.374 27.349 100.834 25.844ZM115.144 27.78V12.977H118.588L123.916 24.797L129.243 12.977H132.698V27.78H130.523V15.218L124.863 27.78H122.979L117.319 15.218V27.78H115.144ZM136.324 25.499H140.267C141.987 25.499 143.359 25.041 144.382 24.125C145.405 23.211 145.918 21.963 145.918 20.384C145.918 18.804 145.405 17.557 144.382 16.642C143.359 15.727 141.987 15.269 140.267 15.269H136.324V25.499ZM133.982 27.78V12.977H140.267C142.64 12.977 144.582 13.68 146.095 15.083C147.606 16.487 148.363 18.253 148.363 20.379C148.363 22.505 147.606 24.27 146.095 25.674C144.582 27.078 142.64 27.78 140.267 27.78H133.982ZM148.147 15.218V12.978H161.58V15.218H156.076V27.78H153.651V15.218H148.147Z" fill="#FDFDFE"/>
<mask id="mask0_2_24" style="mask-type:luminance" maskUnits="userSpaceOnUse" x="0" y="5" width="270" height="28">
<path fill-rule="evenodd" clip-rule="evenodd" d="M0 32.5H270V5.5H0V32.5Z" fill="#1890FF"/>
</mask>
<g mask="url(#mask0_2_24)">
<path fill-rule="evenodd" clip-rule="evenodd" d="M214.363 21.393H217.966V17.58H214.363V21.393ZM208.886 21.393H212.458V17.58H208.886V21.393ZM214.363 12.956V15.785H219.857V23.22H214.363V27.716H212.458V23.22H207.012V15.785H212.458V12.956H214.363ZM228.024 16.706C228.828 16.1803 229.56 15.5528 230.202 14.839C230.759 14.2257 231.268 13.5697 231.723 12.877L233.197 13.448L232.669 14.275H236.929V15.737C236.393 16.4038 235.804 17.0255 235.167 17.596C234.547 18.146 233.827 18.655 233.005 19.121L233.757 19.501C233.587 19.766 233.421 20.011 233.261 20.232H237.281V21.79C236.859 22.4222 236.385 23.0176 235.863 23.57C235.335 24.13 234.711 24.668 233.99 25.181C233.189 25.7425 232.343 26.2368 231.46 26.659C230.493 27.13 229.37 27.589 228.088 28.034L227.336 26.62C229.652 25.92 231.366 25.2 232.476 24.459C233.571 23.7322 234.544 22.8368 235.359 21.806H231.996L231.451 22.378L231.932 22.759C232.145 22.939 232.335 23.099 232.501 23.236C232.666 23.373 232.807 23.5 232.925 23.617L231.787 24.761C231.647 24.611 231.503 24.4652 231.355 24.324C231.185 24.16 230.992 23.978 230.779 23.776L230.346 23.395C230.09 23.607 229.826 23.819 229.553 24.03C229.281 24.242 228.99 24.454 228.681 24.665L227.575 23.49C228.38 22.9642 229.146 22.38 229.866 21.742C230.528 21.1489 231.139 20.5006 231.691 19.804C231.285 19.995 230.859 20.18 230.41 20.36C229.962 20.54 229.481 20.72 228.97 20.9L228.136 19.518C229.684 19.063 231.016 18.528 232.132 17.914C233.247 17.299 234.19 16.579 234.959 15.753H231.5L231.099 16.182L231.515 16.483C231.718 16.632 231.895 16.769 232.044 16.896C232.194 17.023 232.321 17.13 232.429 17.214L231.243 18.294C230.939 18.0119 230.63 17.7366 230.314 17.468L229.994 17.198C229.854 17.315 229.714 17.428 229.57 17.54C229.426 17.65 229.279 17.765 229.129 17.881L228.024 16.706ZM223.027 14.291C223.881 14.185 224.707 14.051 225.502 13.886C226.294 13.7223 227.076 13.518 227.847 13.274L228.537 14.847C227.96 15.027 227.319 15.197 226.615 15.355V17.325H228.376V18.882H226.615V19.343C227.106 19.809 227.56 20.275 227.975 20.742C228.392 21.208 228.702 21.578 228.905 21.853L227.752 22.998C227.612 22.796 227.44 22.563 227.232 22.298C227.03 22.0413 226.824 21.7873 226.615 21.536V27.7H225.045V22.06C224.639 23.12 224.223 24.02 223.796 24.761L222.531 23.919C223.025 23.1299 223.459 22.3041 223.828 21.449C224.195 20.6078 224.527 19.7514 224.821 18.882H222.995V17.325H225.045V15.673C224.768 15.727 224.501 15.771 224.245 15.808C223.988 15.846 223.748 15.874 223.524 15.895L223.027 14.291ZM243.062 25.762H250.414V23.347H243.062V25.762ZM243.112 16.785C243.659 16.1983 244.144 15.5569 244.56 14.871C244.981 14.177 245.337 13.464 245.625 12.734L247.275 13.306L246.81 14.243H253.377V15.753C253.227 15.996 253.09 16.21 252.967 16.396C252.75 16.7257 252.512 17.0413 252.255 17.341C252.138 17.479 252.015 17.622 251.886 17.77L250.333 17.135C250.558 16.912 250.763 16.695 250.951 16.483C251.137 16.271 251.311 16.055 251.471 15.831H249.069L248.973 16.738L248.94 16.952C248.93 17.022 248.914 17.092 248.892 17.166C249.265 17.7914 249.781 18.3198 250.397 18.708C250.803 18.973 251.305 19.226 251.903 19.47C252.564 19.7336 253.244 19.9458 253.937 20.105L253.217 21.774C252.472 21.5332 251.742 21.2494 251.03 20.924C250.484 20.6777 249.962 20.3825 249.469 20.042C248.979 19.6934 248.546 19.2699 248.187 18.787C247.957 19.1338 247.67 19.4396 247.339 19.692C246.933 20.032 246.448 20.36 245.881 20.677C245.315 20.996 244.647 21.313 243.88 21.631H252.287V27.414H241.205V21.63H243.111L242.422 20.216C243.255 19.994 243.965 19.742 244.552 19.461C245.14 19.181 245.604 18.908 245.946 18.643C246.639 18.103 247.035 17.457 247.131 16.705L247.227 15.83H245.946C245.731 16.18 245.505 16.517 245.265 16.84C245.025 17.163 244.755 17.483 244.456 17.8L243.111 16.784L243.112 16.785ZM240.964 12.925C241.146 13.041 241.351 13.195 241.581 13.385C242.091 13.8119 242.591 14.2518 243.079 14.704C243.292 14.906 243.474 15.085 243.623 15.244L242.406 16.594C242.256 16.414 242.079 16.219 241.878 16.007C241.675 15.795 241.434 15.557 241.156 15.292C240.89 15.027 240.646 14.799 240.428 14.609C240.233 14.4381 240.033 14.2736 239.828 14.116L240.964 12.924V12.925ZM239.427 20.297C239.876 19.904 240.404 19.343 241.012 18.612C241.535 18.0112 242.022 17.3801 242.47 16.722L243.864 17.786C243.692 18.051 243.484 18.347 243.239 18.676C242.993 19.005 242.705 19.37 242.374 19.772C242.044 20.174 241.742 20.525 241.469 20.821C241.197 21.117 240.949 21.372 240.724 21.583L239.427 20.297ZM262.586 23.68H265.147V22.123H262.586V23.68ZM262.586 20.535H265.147V19.057H262.586V20.535ZM257.828 13.131C258.149 13.439 258.544 13.878 259.014 14.45C259.504 15.011 259.867 15.466 260.103 15.816L258.822 16.992C258.493 16.4982 258.14 16.0209 257.764 15.562C257.394 15.1049 257.01 14.6596 256.612 14.227L257.828 13.131ZM257.252 26.461C257.444 26.291 257.57 26.13 257.628 25.976C257.688 25.823 257.727 25.603 257.748 25.317V19.677H256.179V17.993H259.366V18.183C259.676 17.833 259.991 17.44 260.311 17C260.631 16.56 260.935 16.102 261.224 15.626C261.512 15.149 261.779 14.667 262.024 14.18C262.27 13.693 262.473 13.232 262.633 12.797L264.315 13.37C264.229 13.56 264.152 13.743 264.083 13.918C264.013 14.092 263.935 14.265 263.851 14.434H270C270 15.408 269.995 16.388 269.985 17.373C269.974 18.358 269.961 19.309 269.944 20.225C269.929 21.141 269.906 22.002 269.88 22.807C269.854 23.611 269.825 24.316 269.793 24.919C269.761 25.482 269.698 25.931 269.608 26.27C269.518 26.61 269.386 26.874 269.216 27.064C269.044 27.254 268.836 27.387 268.591 27.461C268.298 27.5443 267.998 27.5979 267.695 27.621C267.213 27.663 266.779 27.695 266.389 27.716C265.999 27.736 265.633 27.748 265.292 27.748L264.875 25.873C265.163 25.883 265.508 25.897 265.909 25.913C266.309 25.929 266.679 25.925 267.021 25.905C267.225 25.905 267.387 25.891 267.51 25.865C267.626 25.8425 267.73 25.7807 267.806 25.69C267.881 25.6 267.936 25.463 267.974 25.277C268.012 25.092 268.04 24.83 268.062 24.491C268.084 24.12 268.104 23.651 268.127 23.085C268.177 21.6635 268.206 20.2414 268.215 18.819C268.22 17.972 268.217 17.082 268.207 16.149H262.969C262.844 16.3767 262.711 16.5996 262.569 16.817C262.429 17.029 262.286 17.241 262.137 17.452H266.781V25.302H260.952V18.978L260.727 19.232L259.367 18.247V24.681L259.63 24.419C259.71 24.339 259.788 24.258 259.862 24.173C260.028 23.9856 260.183 23.7893 260.327 23.585L260.887 25.19C260.273 25.8704 259.612 26.5073 258.909 27.096C258.669 27.296 258.448 27.472 258.245 27.621L257.252 26.461Z" fill="#FEFEFE"/>
</g>
<mask id="mask1_2_24" style="mask-type:luminance" maskUnits="userSpaceOnUse" x="0" y="5" width="270" height="28">
<path fill-rule="evenodd" clip-rule="evenodd" d="M0 32.5H270V5.5H0V32.5Z" fill="#1890FF"/>
</mask>
<g mask="url(#mask1_2_24)">
<path fill-rule="evenodd" clip-rule="evenodd" d="M180.986 21.835C181.932 22.665 182.83 23.542 183.376 24.66C183.518 25.008 183.619 25.372 183.345 25.67C182.925 26.115 182.469 26.527 182.007 26.93C182.267 26.617 182.119 26.242 181.964 25.88C181.535 25.034 180.881 24.341 180.204 23.672C178.343 21.959 176.024 20.368 173.133 19.596C171.837 19.281 170.427 19.146 169.212 19.699C168.837 20.393 168.92 21.146 169.122 21.891C169.55 23.225 170.493 24.351 171.535 25.337C172.649 26.3174 173.874 27.1638 175.185 27.859C174.686 28.271 173.471 29.417 172.981 29.836C167.166 26.066 166.831 22.921 167.867 20.958C168.26 20.271 168.894 19.791 169.446 19.245C170.023 18.692 170.725 18.207 171.749 18.096C173.446 17.903 175.138 18.382 176.816 19.121C178.434 19.867 179.774 20.803 180.986 21.835Z" fill="#8EC330"/>
</g>
<mask id="mask2_2_24" style="mask-type:luminance" maskUnits="userSpaceOnUse" x="0" y="5" width="270" height="28">
<path fill-rule="evenodd" clip-rule="evenodd" d="M0 32.5H270V5.5H0V32.5Z" fill="#1890FF"/>
</mask>
<g mask="url(#mask2_2_24)">
<path fill-rule="evenodd" clip-rule="evenodd" d="M188.89 19.192C189.41 19.813 189.929 20.515 190.12 21.28C190.251 21.648 190.04 21.99 189.737 22.284C189.337 22.671 188.934 23.048 188.512 23.418C188.542 23.364 188.592 23.312 188.626 23.25C188.799 22.745 188.508 22.178 188.216 21.653C187.396 20.403 186.316 19.345 185.126 18.355C182.658 16.275 178.906 14.129 175.298 13.925C174.306 13.861 173.132 13.993 172.296 14.446C170.946 16.896 173.26 20.069 175.456 21.939C176.796 23.09 178.346 24.097 180.049 25.002C180.784 25.374 181.604 25.711 182.387 25.817C182.912 25.888 183.369 25.638 183.362 25.652C182.92 26.096 182.476 26.514 182.007 26.93C181.797 27.115 181.45 27.252 181.102 27.215C180.151 27.157 179.117 26.662 178.249 26.219C176.619 25.319 175.129 24.32 173.832 23.188C172.03 21.581 170.164 19.196 170.452 17.022C170.518 16.282 170.962 15.501 171.544 14.958C172.01 14.451 172.544 13.996 173.069 13.537C173.78 12.9 175.027 12.526 176.174 12.524C179.469 12.474 183.169 14.34 185.636 16.19C186.825 17.0713 187.916 18.0778 188.89 19.192Z" fill="#54C2F0"/>
</g>
<mask id="mask3_2_24" style="mask-type:luminance" maskUnits="userSpaceOnUse" x="0" y="5" width="270" height="28">
<path fill-rule="evenodd" clip-rule="evenodd" d="M0 32.5H270V5.5H0V32.5Z" fill="#1890FF"/>
</mask>
<g mask="url(#mask3_2_24)">
<path fill-rule="evenodd" clip-rule="evenodd" d="M198.656 15.962C199.096 16.522 199.484 17.049 199.774 17.557L198.398 18.564L197.164 16.957L198.656 15.962ZM193.052 17.187L194.601 16.187L195.496 17.411L197.786 15.968C197.758 15.921 194.629 10.231 187.748 7.14802C185.28 6.04102 182.76 5.35602 180.266 5.52402C178.981 5.61802 177.745 6.05302 176.947 6.72902C176.26 7.31482 175.603 7.9339 174.977 8.58402C173.555 10.131 173.602 12.033 174.42 13.891C175.44 16.105 177.097 17.891 179.06 19.458C180.59 20.6578 182.223 21.7199 183.94 22.632C184.958 23.137 186.149 23.698 187.254 23.793C187.691 23.843 188.208 23.711 188.472 23.45C188.984 22.994 189.492 22.528 189.951 22.034C189.774 22.216 189.445 22.319 189.14 22.324C187.806 22.332 186.367 21.61 185.17 20.981C183.34 19.973 181.662 18.864 180.158 17.619C178.352 16.06 176.749 14.33 175.869 12.157C175.277 10.632 175.021 9.43602 175.881 8.04302C179.773 7.15802 189.008 10.822 193.052 17.186" fill="#FEFEFE"/>
</g>
<mask id="mask4_2_24" style="mask-type:luminance" maskUnits="userSpaceOnUse" x="0" y="5" width="270" height="28">
<path fill-rule="evenodd" clip-rule="evenodd" d="M0 32.5H270V5.5H0V32.5Z" fill="#1890FF"/>
</mask>
<g mask="url(#mask4_2_24)">
<path fill-rule="evenodd" clip-rule="evenodd" d="M194.29 17.298L195.174 18.493L194.038 19.277L193.132 18.057L194.29 17.298ZM197.151 19.24L197.684 20.013L197.038 20.518L196.49 19.759L197.151 19.24ZM22.11 22.553C20.11 19.925 17.117 17.24 16.293 16.575C15.715 16.111 15.137 15.873 14.566 15.885C13.999 15.89 13.451 16.121 12.961 16.545C12.862 16.629 12.724 16.752 12.551 16.905C11.366 17.899 7.69305 21.248 7.61005 21.327C7.33205 21.583 6.97505 21.757 6.57405 21.74C6.21905 21.725 5.82805 21.57 5.43305 21.204C5.16105 20.954 3.90805 19.977 2.44205 18.341C1.53805 17.335 0.792047 16.441 0.792047 16.441C0.792047 16.441 0.631047 16.777 0.538047 17.012C0.458047 17.208 0.523047 17.333 0.562047 17.386C1.04905 18.084 3.28705 20.74 6.37405 23.376C6.94105 23.858 7.52905 24.074 8.09805 24.066C8.66505 24.058 9.21605 23.826 9.70405 23.406C9.79805 23.322 9.94105 23.198 10.114 23.046C11.301 22.052 13.528 20.026 14.582 19.059C14.808 18.856 14.973 18.704 15.062 18.623C15.338 18.365 15.696 18.195 16.091 18.213C16.446 18.223 16.821 18.399 17.229 18.746C17.891 19.306 18.957 20.288 20.221 21.61C21.157 22.582 21.866 23.492 21.876 23.503C21.876 23.503 22.047 23.153 22.139 22.913C22.214 22.719 22.147 22.603 22.109 22.553" fill="#FEFEFE"/>
</g>
<mask id="mask5_2_24" style="mask-type:luminance" maskUnits="userSpaceOnUse" x="0" y="5" width="270" height="28">
<path fill-rule="evenodd" clip-rule="evenodd" d="M0 32.5H270V5.5H0V32.5Z" fill="#1890FF"/>
</mask>
<g mask="url(#mask5_2_24)">
<path fill-rule="evenodd" clip-rule="evenodd" d="M10.2259 12.903C9.19291 13.649 4.93891 17.568 4.10791 18.503C4.10791 18.503 4.70291 19.16 5.60491 19.897C5.83691 20.095 6.11991 20.054 6.36491 19.811C7.99891 18.177 11.3389 15.254 11.7919 14.895C13.0499 13.835 14.5159 13.742 15.8619 14.74C19.1219 17.166 22.0119 20.98 22.5049 21.695C22.5049 21.695 22.5779 21.343 22.6259 21.025C22.6259 21.011 22.6899 20.726 22.5259 20.487C19.4659 16.101 16.2069 13.399 14.9559 12.723C13.5279 11.947 11.8739 11.707 10.2259 12.903Z" fill="#FEFEFE"/>
</g>
<mask id="mask6_2_24" style="mask-type:luminance" maskUnits="userSpaceOnUse" x="0" y="5" width="270" height="28">
<path fill-rule="evenodd" clip-rule="evenodd" d="M0 32.5H270V5.5H0V32.5Z" fill="#1890FF"/>
</mask>
<g mask="url(#mask6_2_24)">
<path fill-rule="evenodd" clip-rule="evenodd" d="M6.786 10.614C4.685 12.294 1.976 14.773 1.294 15.521C1.294 15.521 1.804 16.151 2.605 16.933C2.763 17.063 2.928 17.031 3.064 16.885C5.138 14.896 7.393 12.864 8.695 11.865C10.9 10.173 13.482 10.011 16.006 12.005C16.944 12.75 17.774 13.487 18.991 14.729C20.548 16.411 21.559 17.814 22.674 19.399C22.674 19.399 22.666 18.975 22.544 18.412C22.5172 18.2789 22.4731 18.1498 22.413 18.028C22.189 17.581 21.21 15.911 19.783 14.261C16.963 10.991 15.177 9.99403 14.036 9.40103C12.525 8.61203 9.569 8.37803 6.786 10.614ZM12.446 27.05C13.48 26.301 17.729 22.385 18.565 21.445C18.565 21.445 17.967 20.79 17.068 20.054C16.837 19.856 16.555 19.896 16.313 20.142C14.671 21.773 11.334 24.696 10.886 25.052C9.624 26.114 8.158 26.207 6.814 25.21C3.55 22.787 0.664004 18.97 0.170004 18.258C0.170004 18.258 0.0960044 18.608 0.0460044 18.921C0.0460044 18.943 -0.0149956 19.224 0.146004 19.464C3.21 23.848 6.466 26.552 7.717 27.227C9.149 28.003 10.799 28.244 12.446 27.05Z" fill="#FEFEFE"/>
</g>
<mask id="mask7_2_24" style="mask-type:luminance" maskUnits="userSpaceOnUse" x="0" y="5" width="270" height="28">
<path fill-rule="evenodd" clip-rule="evenodd" d="M0 32.5H270V5.5H0V32.5Z" fill="#1890FF"/>
</mask>
<g mask="url(#mask7_2_24)">
<path fill-rule="evenodd" clip-rule="evenodd" d="M15.8911 29.337C17.9911 27.656 20.6931 25.179 21.3811 24.432C21.3811 24.432 20.8671 23.798 20.0651 23.019C19.9111 22.886 19.7461 22.92 19.6101 23.065C17.5331 25.055 15.2811 27.087 13.9751 28.086C11.7711 29.776 9.18609 29.94 6.66809 27.944C5.73009 27.199 4.89809 26.464 3.68309 25.221C2.12709 23.54 1.11309 22.134 8.63552e-05 20.551C8.63552e-05 20.551 -0.00791365 20.962 0.130086 21.539C0.152086 21.632 0.193086 21.786 0.264086 21.925C0.485086 22.369 1.46709 24.039 2.89109 25.689C5.71109 28.96 7.49609 29.957 8.63809 30.551C10.1531 31.339 13.1071 31.569 15.8911 29.337ZM32.8461 16.566H35.8561V13H32.8461V16.566ZM28.7771 16.566H31.7551V13H28.7771V16.566ZM32.8461 10.076H31.7551V12.04H27.7241V17.53H31.7551V20.511H32.8461V17.531H36.9131V12.04H32.8461V10.075V10.076ZM45.5811 15.448L44.8361 16L44.9161 16.079C45.2181 16.392 45.5991 16.856 45.9241 17.292L45.9891 17.369L46.7611 16.784L46.7011 16.706C46.3655 16.2908 46.0104 15.8917 45.6371 15.51L45.5811 15.448Z" fill="#FEFEFE"/>
</g>
<mask id="mask8_2_24" style="mask-type:luminance" maskUnits="userSpaceOnUse" x="0" y="5" width="270" height="28">
<path fill-rule="evenodd" clip-rule="evenodd" d="M0 32.5H270V5.5H0V32.5Z" fill="#1890FF"/>
</mask>
<g mask="url(#mask8_2_24)">
<path fill-rule="evenodd" clip-rule="evenodd" d="M47.1701 17.519H44.5451V15.366H46.7921V14.469H44.5451V13.104H47.0001V12.204H41.1301V13.104H43.5781V14.469H41.3301V15.366H43.5781V17.519H40.9651V18.419H47.1691L47.1701 17.519Z" fill="#FEFEFE"/>
</g>
<mask id="mask9_2_24" style="mask-type:luminance" maskUnits="userSpaceOnUse" x="0" y="5" width="270" height="28">
<path fill-rule="evenodd" clip-rule="evenodd" d="M0 32.5H270V5.5H0V32.5Z" fill="#1890FF"/>
</mask>
<g mask="url(#mask9_2_24)">
<path fill-rule="evenodd" clip-rule="evenodd" d="M40.4041 19.306H47.7471V11.38H40.4041V19.306ZM39.4041 20.244L48.7441 20.236V10.454H39.4041V20.244ZM55.1021 16.096C54.6491 15.7 53.4161 14.709 53.4161 14.709V14.19H54.8681V13.258H53.4161V11.757C54.4411 11.592 54.8961 11.452 54.8961 11.452L54.6931 10.502C54.6931 10.502 53.7801 10.732 52.8471 10.859C51.6451 11.018 50.9271 11.085 50.9271 11.085L51.0331 12.027C51.0331 12.027 51.8341 11.942 52.4501 11.831V13.259H50.7971V14.191H52.3051C51.9076 15.4046 51.3345 16.5535 50.6041 17.601C50.6041 17.601 51.3101 18.359 51.3201 18.349C51.7521 17.749 52.1311 17.071 52.4501 16.337V20.507H53.4161V15.93C53.7731 16.255 54.1041 16.558 54.4161 16.848L54.4841 16.918L55.1711 16.158L55.1021 16.096Z" fill="#FEFEFE"/>
</g>
<mask id="mask10_2_24" style="mask-type:luminance" maskUnits="userSpaceOnUse" x="0" y="5" width="270" height="28">
<path fill-rule="evenodd" clip-rule="evenodd" d="M0 32.5H270V5.5H0V32.5Z" fill="#1890FF"/>
</mask>
<g mask="url(#mask10_2_24)">
<path fill-rule="evenodd" clip-rule="evenodd" d="M58.514 15.356C58.684 15.128 58.754 14.872 58.754 14.872L57.794 14.712C57.978 14.612 58.152 14.506 58.325 14.402C59.475 13.669 60.28 12.808 60.789 11.839L60.797 11.811V10.95H57.415C57.521 10.779 57.625 10.603 57.714 10.427L57.76 10.331L56.835 9.98199L56.801 10.06C56.276 11.103 55.514 12.03 54.547 12.818C54.535 12.827 55.048 13.217 55.346 13.405C55.8753 12.9485 56.3552 12.4377 56.778 11.881H59.623C59.122 12.527 58.63 13.057 58.06 13.424C57.676 13.0887 57.2822 12.7649 56.879 12.453L56.809 12.403L56.197 13.06L56.277 13.122C56.707 13.476 56.957 13.692 57.239 13.961C56.495 14.36 55.677 14.678 54.749 14.952C54.749 14.952 55.356 15.774 55.372 15.768C55.924 15.578 57.049 15.078 57.538 14.863C56.894 16.122 55.483 17.131 54.504 17.663C54.504 17.663 54.927 18.113 55.257 18.373C56.821 17.663 57.893 16.283 57.893 16.283H60.048C59.908 17.022 59.262 17.936 58.351 18.487C57.991 18.132 57.639 17.785 57.208 17.403L56.524 17.994C56.902 18.341 57.234 18.697 57.513 18.992C56.14 19.578 54.303 19.662 54.303 19.662L54.686 20.493C54.686 20.493 60.071 20.358 61.166 16.25L61.173 15.357H58.513L58.514 15.356ZM63.028 12.024H67.418V11.063H63.028V12.024ZM67.601 18.566C67.2328 17.6872 66.848 16.8153 66.447 15.951L66.405 15.866L65.51 16.263L65.55 16.353C65.788 16.878 66 17.352 66.219 17.893L63.906 18.436C64.418 17.608 65.054 15.745 65.402 14.746H67.838V13.784H62.591V14.746H64.319C64.214 15.294 63.61 17.107 62.796 18.586C62.696 18.769 62.552 18.878 62.552 18.878L62.843 19.568C62.843 19.568 65.663 18.814 66.503 18.688L66.608 18.938L67.601 18.566Z" fill="#FEFEFE"/>
</g>
<mask id="mask11_2_24" style="mask-type:luminance" maskUnits="userSpaceOnUse" x="0" y="5" width="270" height="28">
<path fill-rule="evenodd" clip-rule="evenodd" d="M0 32.5H270V5.5H0V32.5Z" fill="#1890FF"/>
</mask>
<g mask="url(#mask11_2_24)">
<path fill-rule="evenodd" clip-rule="evenodd" d="M69.9231 12.226C69.9371 11.556 69.9471 10.876 69.9471 10.2V10.1H68.8941V10.194C68.8971 10.892 68.8941 11.567 68.8871 12.226H67.5241V13.209H68.8741V14.519C68.8741 16.505 68.5271 17.519 67.7491 18.699C67.2831 19.419 66.4291 19.906 66.4291 19.906L67.2121 20.662C67.2121 20.662 69.8841 19.274 69.8841 14.92L69.9071 13.21H71.6951C71.6743 14.9473 71.6119 16.6838 71.5081 18.418C71.4881 18.943 71.2641 19.188 70.8021 19.188C70.4121 19.18 69.6271 19.179 69.6271 19.179C69.6841 19.489 69.8001 20.219 69.8001 20.219H71.0671C71.9511 20.207 72.4471 19.679 72.5281 18.646C72.6181 17.058 72.6861 14.928 72.7381 12.329L72.7401 12.226H69.9231ZM37.2101 24.647C37.0782 24.5383 36.9249 24.4586 36.7601 24.413C36.4857 24.3365 36.1968 24.3282 35.9184 24.3889C35.6401 24.4495 35.3808 24.5773 35.1631 24.761C35.1211 24.801 35.0741 24.845 35.0391 24.885V22.364H34.2261V28.6H35.0391V25.711C35.1791 25.515 35.3491 25.355 35.5381 25.239C35.7361 25.124 35.9461 25.063 36.1581 25.063C36.4171 25.063 36.5911 25.135 36.7011 25.278C36.8101 25.424 36.8661 25.653 36.8661 25.956V28.6H37.6811V25.852C37.6811 25.552 37.6401 25.3 37.5511 25.108C37.4789 24.9279 37.3609 24.7692 37.2101 24.647ZM38.5601 23.685H39.3761V22.8H38.5601V23.685ZM38.5601 28.6H39.3761V24.454H38.5601V28.6ZM43.3031 24.692C43.1722 24.5728 43.017 24.4834 42.8481 24.43C42.5273 24.334 42.1866 24.325 41.8611 24.404C41.6043 24.4678 41.3668 24.593 41.1691 24.769C41.1071 24.818 41.0611 24.873 41.0101 24.929L40.9021 24.454H40.2511V28.6H41.0631V25.712C41.199 25.5214 41.3726 25.3608 41.5731 25.24C41.7671 25.125 41.9771 25.064 42.1891 25.064C42.4241 25.064 42.5911 25.134 42.7111 25.266C42.8351 25.401 42.8911 25.634 42.8911 25.958V28.6H43.7101V25.853C43.7101 25.581 43.6701 25.348 43.6021 25.159C43.5356 24.9848 43.4338 24.8261 43.3031 24.693M46.8611 26.831V27.533C46.8331 27.563 46.7931 27.598 46.7451 27.638C46.6739 27.6983 46.5969 27.7512 46.5151 27.796C46.4187 27.8543 46.3161 27.9016 46.2091 27.937C45.9999 28.0051 45.7754 28.0107 45.5631 27.953C45.4839 27.9286 45.4109 27.8874 45.3491 27.8322C45.2873 27.7769 45.2382 27.709 45.2051 27.633C45.1699 27.5401 45.1526 27.4414 45.1541 27.342C45.1541 27.12 45.2241 26.967 45.3591 26.862C45.5051 26.757 45.7071 26.705 45.9621 26.705C46.1561 26.705 46.3391 26.72 46.5001 26.75C46.6341 26.776 46.7541 26.803 46.8611 26.831ZM47.5481 25.175C47.4222 24.9171 47.2168 24.7064 46.9621 24.574C46.6921 24.427 46.3451 24.348 45.9281 24.348C45.7009 24.3502 45.4743 24.373 45.2511 24.416C45.1502 24.4382 45.0501 24.4642 44.9511 24.494C44.8658 24.5212 44.7822 24.554 44.7011 24.592L44.6611 24.614V25.324L44.7651 25.282C44.9358 25.2183 45.1109 25.1671 45.2891 25.129C45.4651 25.094 45.6511 25.072 45.8461 25.072C46.1051 25.072 46.3141 25.116 46.4611 25.192C46.593 25.2626 46.7032 25.3677 46.7801 25.496C46.8101 25.553 46.8281 25.62 46.8431 25.698C46.8551 25.778 46.8611 25.87 46.8611 25.97V26.146C46.7332 26.1025 46.6017 26.0704 46.4681 26.05C46.2703 26.0124 46.0695 25.9926 45.8681 25.991C45.6441 25.991 45.4331 26.022 45.2441 26.082C45.0541 26.146 44.8881 26.234 44.7501 26.349C44.6133 26.4658 44.5029 26.6103 44.4261 26.773C44.2757 27.137 44.2714 27.545 44.4141 27.912C44.4799 28.0751 44.5801 28.2222 44.7077 28.3431C44.8354 28.4641 44.9877 28.5562 45.1541 28.613C45.3231 28.673 45.5131 28.703 45.7171 28.703C45.9896 28.7057 46.259 28.6452 46.5041 28.526C46.6171 28.472 46.7191 28.41 46.8041 28.342C46.8441 28.306 46.8851 28.274 46.9241 28.238L46.9811 28.6H47.6751V25.856C47.6751 25.726 47.6681 25.604 47.6471 25.492C47.6304 25.3818 47.5976 25.2749 47.5481 25.175ZM32.6621 26.778C32.4635 27.1116 32.1819 27.388 31.8448 27.5805C31.5076 27.7729 31.1263 27.8747 30.7381 27.876C30.1496 27.8771 29.5846 27.6449 29.1668 27.2303C28.749 26.8158 28.5126 26.2526 28.5091 25.664C28.5091 24.443 29.5131 23.453 30.7381 23.453C31.5181 23.453 32.2521 23.864 32.6561 24.533L32.6771 24.573H33.5411L33.4951 24.466C33.2584 23.9326 32.8718 23.4795 32.3823 23.1618C31.8929 22.844 31.3217 22.6752 30.7381 22.676C29.0781 22.676 27.7241 24.016 27.7241 25.664C27.7241 27.307 29.0781 28.65 30.7381 28.65C31.9371 28.65 33.0251 27.945 33.4991 26.85L33.5491 26.744H32.6811L32.6621 26.778ZM53.5191 26.05C53.4031 26.328 53.2491 26.709 53.0791 27.19C52.9423 26.8073 52.7956 26.4281 52.6391 26.053L51.2851 22.827H50.1581V28.599H51.0081V25.806C51.0081 25.273 50.9931 24.686 50.9671 24.058C51.1181 24.466 51.2711 24.844 51.4181 25.198L52.8681 28.599H53.2911L54.7331 25.197C54.8791 24.863 55.0301 24.485 55.1891 24.057C55.1653 24.6397 55.1523 25.2228 55.1501 25.806V28.599H55.9971V22.827H54.8711L53.5191 26.05ZM64.3921 26.511C64.3921 26.734 64.3671 26.936 64.3151 27.121C64.2701 27.305 64.1961 27.461 64.1001 27.591C64.0124 27.7173 63.895 27.82 63.7581 27.89C63.6251 27.958 63.4581 27.995 63.2801 27.995C63.1611 27.995 63.0471 27.975 62.9501 27.942C62.8534 27.9071 62.7603 27.8629 62.6721 27.81C62.5951 27.7629 62.5239 27.7069 62.4601 27.643C62.4124 27.5985 62.3686 27.55 62.3291 27.498V25.473C62.4531 25.354 62.5991 25.259 62.7561 25.185C63.0351 25.053 63.3561 25.023 63.6701 25.124C63.7997 25.1676 63.9177 25.2401 64.0151 25.336C64.1251 25.436 64.2151 25.581 64.2831 25.766C64.3531 25.955 64.3921 26.204 64.3921 26.511ZM64.9291 25.175C64.8414 25.0257 64.7287 24.8924 64.5961 24.781C64.3692 24.5849 64.0959 24.4499 63.8021 24.389C63.677 24.3638 63.5498 24.3504 63.4221 24.349C63.1858 24.3457 62.9514 24.3921 62.7341 24.485C62.5841 24.547 62.4531 24.632 62.3291 24.736V22.364H61.5151V28.6H62.1501L62.2621 28.232C62.2731 28.247 62.2881 28.257 62.2991 28.274C62.3611 28.342 62.4371 28.404 62.5341 28.472C62.6331 28.536 62.7501 28.589 62.8871 28.636C63.0251 28.682 63.1871 28.702 63.3651 28.702C63.6011 28.702 63.8371 28.657 64.0611 28.569C64.2831 28.479 64.4811 28.335 64.6601 28.153C64.8281 27.967 64.9731 27.732 65.0781 27.45C65.1821 27.174 65.2341 26.835 65.2341 26.46C65.2341 26.185 65.2061 25.94 65.1491 25.726C65.1011 25.5332 65.0271 25.3478 64.9291 25.175ZM65.8791 28.6H66.6921V24.454H65.8791V28.6ZM65.8791 23.685H66.6921V22.8H65.8791V23.685ZM67.6101 28.6H68.4271V22.364H67.6101V28.6ZM69.9271 26.026C69.9441 25.91 69.9771 25.803 70.0191 25.699C70.0771 25.573 70.1541 25.464 70.2421 25.368C70.331 25.2735 70.4386 25.1985 70.5581 25.148C70.6775 25.0945 70.8068 25.0665 70.9377 25.0658C71.0686 25.0651 71.1981 25.0917 71.3181 25.144C71.4239 25.1933 71.5172 25.2658 71.5911 25.356C71.6611 25.453 71.7211 25.562 71.7541 25.69C71.7871 25.796 71.8041 25.905 71.8141 26.026H69.9271ZM72.5301 25.483C72.4607 25.2448 72.3406 25.0245 72.1781 24.837C72.0281 24.669 71.8471 24.547 71.6381 24.467C71.1924 24.3041 70.7021 24.3123 70.2621 24.49C70.0321 24.584 69.8271 24.724 69.6521 24.914C69.4771 25.097 69.3341 25.334 69.2281 25.607C69.1198 25.9212 69.067 26.2518 69.0721 26.584C69.0721 26.96 69.1281 27.286 69.2411 27.554C69.3411 27.829 69.4951 28.052 69.6901 28.221C69.8801 28.391 70.1121 28.517 70.3761 28.591C70.6361 28.666 70.9131 28.703 71.2131 28.703C71.4531 28.703 71.6871 28.685 71.9031 28.642C72.1211 28.602 72.3061 28.541 72.4561 28.472L72.4961 28.447V27.747L72.3961 27.783C72.042 27.9128 71.6682 27.9804 71.2911 27.983C71.0921 27.983 70.9031 27.955 70.7311 27.91C70.5621 27.86 70.4111 27.783 70.2861 27.683C70.1596 27.5718 70.0595 27.4338 69.9931 27.279C69.9271 27.129 69.8931 26.948 69.8851 26.741H72.6521V26.665C72.6591 26.579 72.6591 26.523 72.6591 26.5V26.415C72.6591 26.055 72.6191 25.74 72.5301 25.483ZM58.7611 27.973C58.5643 27.9803 58.3681 27.9478 58.1841 27.8775C58.0001 27.8072 57.8322 27.7006 57.6904 27.5639C57.5486 27.4272 57.4358 27.2634 57.3588 27.0821C57.2817 26.9009 57.242 26.706 57.242 26.509C57.242 26.3121 57.2817 26.1172 57.3588 25.9359C57.4358 25.7547 57.5486 25.5908 57.6904 25.4541C57.8322 25.3175 58.0001 25.2108 58.1841 25.1405C58.3681 25.0702 58.5643 25.0377 58.7611 25.045C59.5781 25.045 60.2381 25.698 60.2381 26.505C60.2379 26.6985 60.1994 26.89 60.125 27.0686C60.0506 27.2471 59.9416 27.4093 59.8044 27.5457C59.6672 27.682 59.5044 27.79 59.3254 27.8633C59.1463 27.9367 58.9546 27.9739 58.7611 27.973ZM58.7611 24.34C57.5531 24.34 56.5751 25.31 56.5751 26.504C56.5755 26.7906 56.6324 27.0742 56.7425 27.3387C56.8526 27.6033 57.0138 27.8435 57.2168 28.0457C57.4198 28.2479 57.6607 28.4081 57.9257 28.5171C58.1907 28.6261 58.4746 28.6818 58.7611 28.681C59.0478 28.6818 59.3318 28.6261 59.597 28.5171C59.8621 28.4082 60.1032 28.248 60.3065 28.0459C60.5098 27.8437 60.6712 27.6035 60.7817 27.339C60.8921 27.0744 60.9493 26.7907 60.9501 26.504C60.9501 25.309 59.9681 24.34 58.7611 24.34ZM84.8531 30.912H86.0531V7.88202H84.8531V30.912Z" fill="#FEFEFE"/>
</g>
</svg>
